<mxfile modified="2024-07-08T12:07:14.982Z" host="app.diagrams.net" agent="Mozilla/5.0 (Windows NT 10.0; Win64; x64) AppleWebKit/537.36 (KHTML, like Gecko) Chrome/126.0.0.0 Safari/537.36" etag="Qh9DHmZwTVQOP3NDy8fX" version="24.4.13" type="device">
  <diagram id="Ht1M8jgEwFfnCIfOTk4-" name="Page-1">
    <mxGraphModel dx="2128" dy="1015" grid="1" gridSize="10" guides="1" tooltips="1" connect="1" arrows="1" fold="1" page="0" pageScale="1" pageWidth="1169" pageHeight="827" math="0" shadow="0">
      <root>
        <mxCell id="0" />
        <mxCell id="1" parent="0" />
        <mxCell id="UEzPUAAOIrF-is8g5C7q-205" value="AWS Cloud" style="points=[[0,0],[0.25,0],[0.5,0],[0.75,0],[1,0],[1,0.25],[1,0.5],[1,0.75],[1,1],[0.75,1],[0.5,1],[0.25,1],[0,1],[0,0.75],[0,0.5],[0,0.25]];outlineConnect=0;gradientColor=none;html=1;whiteSpace=wrap;fontSize=12;fontStyle=0;shape=mxgraph.aws4.group;grIcon=mxgraph.aws4.group_aws_cloud_alt;strokeColor=#232F3E;fillColor=none;verticalAlign=top;align=left;spacingLeft=30;fontColor=#232F3E;dashed=0;labelBackgroundColor=#ffffff;container=1;pointerEvents=0;collapsible=0;recursiveResize=0;" parent="1" vertex="1">
          <mxGeometry x="150" y="60" width="780" height="310" as="geometry" />
        </mxCell>
        <mxCell id="UEzPUAAOIrF-is8g5C7q-214" value="SQS FIFO" style="outlineConnect=0;fontColor=#232F3E;gradientColor=#F34482;gradientDirection=north;fillColor=#BC1356;strokeColor=#ffffff;dashed=0;verticalLabelPosition=bottom;verticalAlign=top;align=center;html=1;fontSize=12;fontStyle=0;aspect=fixed;shape=mxgraph.aws4.resourceIcon;resIcon=mxgraph.aws4.sns;labelBackgroundColor=#ffffff;spacingTop=6;" parent="UEzPUAAOIrF-is8g5C7q-205" vertex="1">
          <mxGeometry x="290.0000000000001" y="142.5" width="78" height="78" as="geometry" />
        </mxCell>
        <mxCell id="ZQzr-UDHD2PPGD_Y7phv-9" value="" style="edgeStyle=orthogonalEdgeStyle;rounded=0;orthogonalLoop=1;jettySize=auto;html=1;" edge="1" parent="UEzPUAAOIrF-is8g5C7q-205" source="ZQzr-UDHD2PPGD_Y7phv-1" target="ZQzr-UDHD2PPGD_Y7phv-2">
          <mxGeometry relative="1" as="geometry" />
        </mxCell>
        <mxCell id="ZQzr-UDHD2PPGD_Y7phv-1" value="Trigger every one hour" style="sketch=0;outlineConnect=0;fontColor=#232F3E;gradientColor=none;fillColor=#E7157B;strokeColor=none;dashed=0;verticalLabelPosition=bottom;verticalAlign=top;align=center;html=1;fontSize=12;fontStyle=0;aspect=fixed;pointerEvents=1;shape=mxgraph.aws4.event_time_based;" vertex="1" parent="UEzPUAAOIrF-is8g5C7q-205">
          <mxGeometry x="450" y="10" width="78" height="78" as="geometry" />
        </mxCell>
        <mxCell id="ZQzr-UDHD2PPGD_Y7phv-4" style="edgeStyle=orthogonalEdgeStyle;rounded=0;orthogonalLoop=1;jettySize=auto;html=1;" edge="1" parent="UEzPUAAOIrF-is8g5C7q-205" source="ZQzr-UDHD2PPGD_Y7phv-2" target="UEzPUAAOIrF-is8g5C7q-214">
          <mxGeometry relative="1" as="geometry" />
        </mxCell>
        <mxCell id="ZQzr-UDHD2PPGD_Y7phv-25" value="&lt;b&gt;&lt;font color=&quot;#ff3333&quot;&gt;maximum_concurrency = 1&lt;/font&gt;&lt;/b&gt;" style="edgeLabel;html=1;align=center;verticalAlign=middle;resizable=0;points=[];" vertex="1" connectable="0" parent="ZQzr-UDHD2PPGD_Y7phv-4">
          <mxGeometry x="-0.2439" y="3" relative="1" as="geometry">
            <mxPoint x="71" y="66" as="offset" />
          </mxGeometry>
        </mxCell>
        <mxCell id="ZQzr-UDHD2PPGD_Y7phv-32" value="Pool Up 200" style="edgeLabel;html=1;align=center;verticalAlign=middle;resizable=0;points=[];" vertex="1" connectable="0" parent="ZQzr-UDHD2PPGD_Y7phv-4">
          <mxGeometry x="-0.2683" y="3" relative="1" as="geometry">
            <mxPoint x="-10" y="6" as="offset" />
          </mxGeometry>
        </mxCell>
        <mxCell id="ZQzr-UDHD2PPGD_Y7phv-2" value="Lambda" style="sketch=0;points=[[0,0,0],[0.25,0,0],[0.5,0,0],[0.75,0,0],[1,0,0],[0,1,0],[0.25,1,0],[0.5,1,0],[0.75,1,0],[1,1,0],[0,0.25,0],[0,0.5,0],[0,0.75,0],[1,0.25,0],[1,0.5,0],[1,0.75,0]];outlineConnect=0;fontColor=#232F3E;fillColor=#ED7100;strokeColor=#ffffff;dashed=0;verticalLabelPosition=bottom;verticalAlign=top;align=center;html=1;fontSize=12;fontStyle=0;aspect=fixed;shape=mxgraph.aws4.resourceIcon;resIcon=mxgraph.aws4.lambda;" vertex="1" parent="UEzPUAAOIrF-is8g5C7q-205">
          <mxGeometry x="450" y="142.5" width="78" height="78" as="geometry" />
        </mxCell>
        <mxCell id="ZQzr-UDHD2PPGD_Y7phv-5" value="SOR" style="sketch=0;points=[[0,0,0],[0.25,0,0],[0.5,0,0],[0.75,0,0],[1,0,0],[0,1,0],[0.25,1,0],[0.5,1,0],[0.75,1,0],[1,1,0],[0,0.25,0],[0,0.5,0],[0,0.75,0],[1,0.25,0],[1,0.5,0],[1,0.75,0]];outlineConnect=0;fontColor=#232F3E;fillColor=#7AA116;strokeColor=#ffffff;dashed=0;verticalLabelPosition=bottom;verticalAlign=top;align=center;html=1;fontSize=12;fontStyle=0;aspect=fixed;shape=mxgraph.aws4.resourceIcon;resIcon=mxgraph.aws4.s3;" vertex="1" parent="UEzPUAAOIrF-is8g5C7q-205">
          <mxGeometry x="610" y="142.5" width="78" height="78" as="geometry" />
        </mxCell>
        <mxCell id="ZQzr-UDHD2PPGD_Y7phv-6" style="edgeStyle=orthogonalEdgeStyle;rounded=0;orthogonalLoop=1;jettySize=auto;html=1;entryX=0;entryY=0.5;entryDx=0;entryDy=0;entryPerimeter=0;" edge="1" parent="UEzPUAAOIrF-is8g5C7q-205" source="ZQzr-UDHD2PPGD_Y7phv-2" target="ZQzr-UDHD2PPGD_Y7phv-5">
          <mxGeometry relative="1" as="geometry" />
        </mxCell>
        <mxCell id="ZQzr-UDHD2PPGD_Y7phv-10" style="edgeStyle=orthogonalEdgeStyle;rounded=0;orthogonalLoop=1;jettySize=auto;html=1;" edge="1" parent="UEzPUAAOIrF-is8g5C7q-205" source="ZQzr-UDHD2PPGD_Y7phv-8" target="UEzPUAAOIrF-is8g5C7q-214">
          <mxGeometry relative="1" as="geometry" />
        </mxCell>
        <mxCell id="ZQzr-UDHD2PPGD_Y7phv-8" value="API Gateway" style="sketch=0;points=[[0,0,0],[0.25,0,0],[0.5,0,0],[0.75,0,0],[1,0,0],[0,1,0],[0.25,1,0],[0.5,1,0],[0.75,1,0],[1,1,0],[0,0.25,0],[0,0.5,0],[0,0.75,0],[1,0.25,0],[1,0.5,0],[1,0.75,0]];outlineConnect=0;fontColor=#232F3E;fillColor=#8C4FFF;strokeColor=#ffffff;dashed=0;verticalLabelPosition=bottom;verticalAlign=top;align=center;html=1;fontSize=12;fontStyle=0;aspect=fixed;shape=mxgraph.aws4.resourceIcon;resIcon=mxgraph.aws4.api_gateway;" vertex="1" parent="UEzPUAAOIrF-is8g5C7q-205">
          <mxGeometry x="100" y="142.5" width="78" height="78" as="geometry" />
        </mxCell>
        <mxCell id="ZQzr-UDHD2PPGD_Y7phv-33" value="Visibility timeout = 200s" style="text;html=1;align=center;verticalAlign=middle;resizable=0;points=[];autosize=1;strokeColor=none;fillColor=none;" vertex="1" parent="UEzPUAAOIrF-is8g5C7q-205">
          <mxGeometry x="254" y="250" width="150" height="30" as="geometry" />
        </mxCell>
        <mxCell id="ZQzr-UDHD2PPGD_Y7phv-34" value="timeout = 200s" style="text;html=1;align=center;verticalAlign=middle;resizable=0;points=[];autosize=1;strokeColor=none;fillColor=none;" vertex="1" parent="UEzPUAAOIrF-is8g5C7q-205">
          <mxGeometry x="439" y="250" width="100" height="30" as="geometry" />
        </mxCell>
        <mxCell id="ZQzr-UDHD2PPGD_Y7phv-38" style="edgeStyle=orthogonalEdgeStyle;rounded=0;orthogonalLoop=1;jettySize=auto;html=1;entryX=0.5;entryY=0;entryDx=0;entryDy=0;entryPerimeter=0;" edge="1" parent="UEzPUAAOIrF-is8g5C7q-205" source="ZQzr-UDHD2PPGD_Y7phv-8" target="ZQzr-UDHD2PPGD_Y7phv-2">
          <mxGeometry relative="1" as="geometry">
            <Array as="points">
              <mxPoint x="210" y="182" />
              <mxPoint x="210" y="120" />
              <mxPoint x="489" y="120" />
            </Array>
          </mxGeometry>
        </mxCell>
        <mxCell id="ZQzr-UDHD2PPGD_Y7phv-13" style="edgeStyle=orthogonalEdgeStyle;rounded=0;orthogonalLoop=1;jettySize=auto;html=1;" edge="1" parent="1" source="ZQzr-UDHD2PPGD_Y7phv-11" target="ZQzr-UDHD2PPGD_Y7phv-8">
          <mxGeometry relative="1" as="geometry" />
        </mxCell>
        <mxCell id="ZQzr-UDHD2PPGD_Y7phv-14" value="" style="group" vertex="1" connectable="0" parent="1">
          <mxGeometry x="10" y="202" width="80" height="80" as="geometry" />
        </mxCell>
        <mxCell id="ZQzr-UDHD2PPGD_Y7phv-11" value="" style="sketch=0;outlineConnect=0;fontColor=#232F3E;gradientColor=none;fillColor=#7AA116;strokeColor=none;dashed=0;verticalLabelPosition=bottom;verticalAlign=top;align=center;html=1;fontSize=12;fontStyle=0;aspect=fixed;pointerEvents=1;shape=mxgraph.aws4.http_protocol;" vertex="1" parent="ZQzr-UDHD2PPGD_Y7phv-14">
          <mxGeometry width="80" height="80" as="geometry" />
        </mxCell>
        <mxCell id="ZQzr-UDHD2PPGD_Y7phv-12" value="" style="dashed=0;outlineConnect=0;html=1;align=center;labelPosition=center;verticalLabelPosition=bottom;verticalAlign=top;shape=mxgraph.weblogos.json" vertex="1" parent="ZQzr-UDHD2PPGD_Y7phv-14">
          <mxGeometry x="20.53" y="10" width="36.94" height="40" as="geometry" />
        </mxCell>
        <mxCell id="ZQzr-UDHD2PPGD_Y7phv-20" style="edgeStyle=orthogonalEdgeStyle;rounded=0;orthogonalLoop=1;jettySize=auto;html=1;" edge="1" parent="1" source="ZQzr-UDHD2PPGD_Y7phv-17" target="ZQzr-UDHD2PPGD_Y7phv-19">
          <mxGeometry relative="1" as="geometry" />
        </mxCell>
        <mxCell id="ZQzr-UDHD2PPGD_Y7phv-17" value="" style="shape=image;html=1;verticalAlign=top;verticalLabelPosition=bottom;labelBackgroundColor=#ffffff;imageAspect=0;aspect=fixed;image=https://cdn0.iconfinder.com/data/icons/phosphor-fill-vol-3/256/microsoft-excel-logo-fill-128.png" vertex="1" parent="1">
          <mxGeometry x="-330" y="202" width="80" height="80" as="geometry" />
        </mxCell>
        <mxCell id="ZQzr-UDHD2PPGD_Y7phv-21" style="edgeStyle=orthogonalEdgeStyle;rounded=0;orthogonalLoop=1;jettySize=auto;html=1;" edge="1" parent="1" source="ZQzr-UDHD2PPGD_Y7phv-19" target="ZQzr-UDHD2PPGD_Y7phv-11">
          <mxGeometry relative="1" as="geometry" />
        </mxCell>
        <mxCell id="ZQzr-UDHD2PPGD_Y7phv-19" value="python" style="outlineConnect=0;dashed=0;verticalLabelPosition=bottom;verticalAlign=top;align=center;html=1;shape=mxgraph.aws3.android;fillColor=#FFD44F;gradientColor=none;" vertex="1" parent="1">
          <mxGeometry x="-160" y="200" width="73.5" height="84" as="geometry" />
        </mxCell>
        <mxCell id="ZQzr-UDHD2PPGD_Y7phv-23" value="&lt;pre style=&quot;margin-top: 0px; margin-bottom: 0px; padding: var(--su12); border: 0px; font-variant-numeric: inherit; font-variant-east-asian: inherit; font-variant-alternates: inherit; font-variant-position: inherit; font-stretch: inherit; line-height: var(--lh-md); font-family: var(--ff-mono); font-optical-sizing: inherit; font-kerning: inherit; font-feature-settings: inherit; font-variation-settings: inherit; font-size: var(--fs-body1); vertical-align: baseline; box-sizing: inherit; width: auto; max-height: 600px; overflow: auto; background-color: var(--highlight-bg); border-radius: var(--br-md); scrollbar-color: var(--scrollbar) transparent; overflow-wrap: normal; --theme-base-primary-color-h: 27; --theme-base-primary-color-s: 89%; --theme-base-primary-color-l: 48%; --theme-primary-custom-100: hsl(var(--theme-base-primary-color-h), var(--theme-base-primary-color-s), calc(var(--theme-base-primary-color-l) + ((100% - var(--theme-base-primary-color-l)) * .9))); --theme-primary-custom-200: hsl(var(--theme-base-primary-color-h), var(--theme-base-primary-color-s), calc(var(--theme-base-primary-color-l) + ((100% - var(--theme-base-primary-color-l)) * .75))); --theme-primary-custom-300: hsl(var(--theme-base-primary-color-h), var(--theme-base-primary-color-s), calc(var(--theme-base-primary-color-l) + ((100% - var(--theme-base-primary-color-l)) * .5))); --theme-primary-custom-400: hsl(var(--theme-base-primary-color-h), var(--theme-base-primary-color-s), var(--theme-base-primary-color-l)); --theme-primary-custom-500: hsl(var(--theme-base-primary-color-h), var(--theme-base-primary-color-s), calc(var(--theme-base-primary-color-l) + (var(--theme-base-primary-color-l) * -.3))); --theme-primary-custom-600: hsl(var(--theme-base-primary-color-h), var(--theme-base-primary-color-s), calc(var(--theme-base-primary-color-l) + (var(--theme-base-primary-color-l) * -.6))); --theme-primary-custom: var(--theme-primary-custom-400); --theme-button-color: initial; --theme-button-hover-color: initial; --theme-button-hover-background-color: initial; --theme-button-active-background-color: initial; --theme-button-selected-color: initial; --theme-button-selected-background-color: initial; --theme-button-outlined-border-color: initial; --theme-button-outlined-selected-border-color: initial; --theme-button-primary-color: initial; --theme-button-primary-active-color: initial; --theme-button-primary-hover-color: initial; --theme-button-primary-selected-color: initial; --theme-button-primary-background-color: initial; --theme-button-primary-active-background-color: initial; --theme-button-primary-hover-background-color: initial; --theme-button-primary-selected-background-color: initial; --theme-background-color: var(--white); --theme-background-position: top left; --theme-background-repeat: repeat; --theme-background-size: auto; --theme-background-attachment: auto; --theme-content-background-color: var(--white); --theme-content-border-color: var(--black-225); --theme-header-background-color: var(--theme-primary); --theme-header-background-position: center left; --theme-header-background-repeat: repeat; --theme-header-background-size: auto; --theme-header-background-border-bottom: 0; --theme-header-link-color: var(--theme-primary); --theme-header-sponsored-color: hsla(0,0%,100%,0.4); --theme-header-foreground-color: transparent; --theme-header-foreground-position: bottom right; --theme-header-foreground-repeat: no-repeat; --theme-header-foreground-size: auto; --theme-footer-background-color: hsl(210,8%,5%); --theme-footer-background-position: top left; --theme-footer-background-repeat: no-repeat; --theme-footer-background-size: auto; --theme-footer-background-border-top: 0; --theme-footer-title-color: var(--black-250); --theme-footer-text-color: var(--black-300); --theme-footer-link-color: var(--black-300); --theme-footer-link-color-hover: var(--black-200); --theme-footer-divider-color: var(--black-500); --theme-footer-padding-top: 0; --theme-footer-padding-bottom: 0; --theme-link-color: initial; --theme-link-color-hover: initial; --theme-link-color-visited: initial; --theme-body-font-family: var(--ff-sans); --theme-body-font-color: var(--black-600); --theme-post-title-font-family: var(--ff-sans); --theme-post-title-color: var(--theme-link-color); --theme-post-title-color-hover: var(--theme-link-color-hover); --theme-post-title-color-visited: var(--theme-link-color-visited); --theme-post-body-font-family: var(--ff-sans); --theme-post-owner-background-color: var(--theme-secondary-100); --theme-post-owner-new-background-color: var(--theme-secondary-200); --theme-topbar-bottom-border: 1px solid var(--black-225); color: rgb(12, 13, 14); text-align: left;&quot;&gt;&lt;code style=&quot;margin: 0px; padding: 0px; border: 0px; font-style: inherit; font-variant: inherit; font-weight: inherit; font-stretch: inherit; line-height: inherit; font-family: var(--ff-mono); font-optical-sizing: inherit; font-kerning: inherit; font-feature-settings: inherit; font-variation-settings: inherit; font-size: var(--_pr-code-fs); vertical-align: baseline; box-sizing: inherit; background-color: transparent; white-space: inherit; --theme-base-primary-color-h: 27; --theme-base-primary-color-s: 89%; --theme-base-primary-color-l: 48%; --theme-primary-custom-100: hsl(var(--theme-base-primary-color-h), var(--theme-base-primary-color-s), calc(var(--theme-base-primary-color-l) + ((100% - var(--theme-base-primary-color-l)) * .9))); --theme-primary-custom-200: hsl(var(--theme-base-primary-color-h), var(--theme-base-primary-color-s), calc(var(--theme-base-primary-color-l) + ((100% - var(--theme-base-primary-color-l)) * .75))); --theme-primary-custom-300: hsl(var(--theme-base-primary-color-h), var(--theme-base-primary-color-s), calc(var(--theme-base-primary-color-l) + ((100% - var(--theme-base-primary-color-l)) * .5))); --theme-primary-custom-400: hsl(var(--theme-base-primary-color-h), var(--theme-base-primary-color-s), var(--theme-base-primary-color-l)); --theme-primary-custom-500: hsl(var(--theme-base-primary-color-h), var(--theme-base-primary-color-s), calc(var(--theme-base-primary-color-l) + (var(--theme-base-primary-color-l) * -.3))); --theme-primary-custom-600: hsl(var(--theme-base-primary-color-h), var(--theme-base-primary-color-s), calc(var(--theme-base-primary-color-l) + (var(--theme-base-primary-color-l) * -.6))); --theme-primary-custom: var(--theme-primary-custom-400); --theme-button-color: initial; --theme-button-hover-color: initial; --theme-button-hover-background-color: initial; --theme-button-active-background-color: initial; --theme-button-selected-color: initial; --theme-button-selected-background-color: initial; --theme-button-outlined-border-color: initial; --theme-button-outlined-selected-border-color: initial; --theme-button-primary-color: initial; --theme-button-primary-active-color: initial; --theme-button-primary-hover-color: initial; --theme-button-primary-selected-color: initial; --theme-button-primary-background-color: initial; --theme-button-primary-active-background-color: initial; --theme-button-primary-hover-background-color: initial; --theme-button-primary-selected-background-color: initial; --theme-background-color: var(--white); --theme-background-position: top left; --theme-background-repeat: repeat; --theme-background-size: auto; --theme-background-attachment: auto; --theme-content-background-color: var(--white); --theme-content-border-color: var(--black-225); --theme-header-background-color: var(--theme-primary); --theme-header-background-position: center left; --theme-header-background-repeat: repeat; --theme-header-background-size: auto; --theme-header-background-border-bottom: 0; --theme-header-link-color: var(--theme-primary); --theme-header-sponsored-color: hsla(0,0%,100%,0.4); --theme-header-foreground-color: transparent; --theme-header-foreground-position: bottom right; --theme-header-foreground-repeat: no-repeat; --theme-header-foreground-size: auto; --theme-footer-background-color: hsl(210,8%,5%); --theme-footer-background-position: top left; --theme-footer-background-repeat: no-repeat; --theme-footer-background-size: auto; --theme-footer-background-border-top: 0; --theme-footer-title-color: var(--black-250); --theme-footer-text-color: var(--black-300); --theme-footer-link-color: var(--black-300); --theme-footer-link-color-hover: var(--black-200); --theme-footer-divider-color: var(--black-500); --theme-footer-padding-top: 0; --theme-footer-padding-bottom: 0; --theme-link-color: initial; --theme-link-color-hover: initial; --theme-link-color-visited: initial; --theme-body-font-family: var(--ff-sans); --theme-body-font-color: var(--black-600); --theme-post-title-font-family: var(--ff-sans); --theme-post-title-color: var(--theme-link-color); --theme-post-title-color-hover: var(--theme-link-color-hover); --theme-post-title-color-visited: var(--theme-link-color-visited); --theme-post-body-font-family: var(--ff-sans); --theme-post-owner-background-color: var(--theme-secondary-100); --theme-post-owner-new-background-color: var(--theme-secondary-200); --theme-topbar-bottom-border: 1px solid var(--black-225); color: var(--black-600); border-radius: 0px;&quot;&gt;#set($dedupId = $context.requestId)&lt;br&gt;#set($groupId = $input.json(&#39;$.data.anoMes&#39;))&lt;br&gt;Action=SendMessage&amp;amp;MessageBody=$input.body&amp;amp;MessageGroupId=$groupId&amp;amp;MessageDeduplicationId=$dedupId&lt;/code&gt;&lt;/pre&gt;" style="text;html=1;align=center;verticalAlign=middle;resizable=0;points=[];autosize=1;strokeColor=none;fillColor=none;" vertex="1" parent="1">
          <mxGeometry x="180" y="-110" width="640" height="60" as="geometry" />
        </mxCell>
        <mxCell id="ZQzr-UDHD2PPGD_Y7phv-35" value="ApproximateNumberOfMessagesVisible &amp;gt; 0 in 1 hour" style="text;html=1;align=center;verticalAlign=middle;resizable=0;points=[];autosize=1;strokeColor=none;fillColor=none;" vertex="1" parent="1">
          <mxGeometry x="180" y="-30" width="310" height="30" as="geometry" />
        </mxCell>
        <mxCell id="ZQzr-UDHD2PPGD_Y7phv-36" value="&lt;div&gt;&lt;br&gt;&lt;/div&gt;" style="text;html=1;align=left;verticalAlign=middle;resizable=0;points=[];autosize=1;strokeColor=none;fillColor=none;" vertex="1" parent="1">
          <mxGeometry x="310" y="935" width="20" height="30" as="geometry" />
        </mxCell>
        <mxCell id="ZQzr-UDHD2PPGD_Y7phv-37" value="cron: 0 * * * ? *" style="text;html=1;align=center;verticalAlign=middle;resizable=0;points=[];autosize=1;strokeColor=none;fillColor=none;" vertex="1" parent="1">
          <mxGeometry x="190" y="10" width="100" height="30" as="geometry" />
        </mxCell>
      </root>
    </mxGraphModel>
  </diagram>
</mxfile>
